<svg width="30" height="30" viewBox="0 0 30 30" fill="none" xmlns="http://www.w3.org/2000/svg">
<g clip-path="url(#clip0_23_921)">
<path d="M9.69668 14.4914C8.0148 14.9812 6.88652 16.4227 6.99996 17.9648C7.53433 17.3686 8.35043 16.8539 9.33902 16.5155L9.69668 14.4914ZM4.49121 16.8281L3.00386 8.41359C2.99027 8.33766 3.01699 8.29078 3.01511 8.28937C5.72261 6.78656 8.78636 5.99203 11.875 5.99203C11.9504 5.99203 12.0264 6 12.1023 6.00094C12.7562 5.36953 13.5896 4.93078 14.5206 4.78219C15.4061 4.64062 16.3042 4.56891 17.2009 4.53281C16.7326 3.87891 16.0534 3.39703 15.2429 3.26719C14.1221 3.08859 12.9957 3 11.8745 3C8.28105 3 4.73543 3.91031 1.55636 5.67469C0.423394 6.30375 -0.183638 7.61625 0.0493312 8.93344L1.53668 17.348C2.20371 21.1223 7.92714 24.008 11.1203 24.008C11.2886 24.008 11.4367 23.9864 11.5895 23.9705C10.9557 23.1698 10.2329 22.073 9.73793 20.8027C7.50621 20.1942 4.76636 18.383 4.49121 16.8281ZM9.06386 10.3847C9.02964 10.1916 8.95933 10.0158 8.87308 9.85031C8.48636 10.268 7.90418 10.5886 7.21746 10.7091C6.53074 10.83 5.87355 10.7278 5.36683 10.4667C5.34246 10.6514 5.33683 10.8408 5.37105 11.0339C5.55105 12.0511 6.52324 12.7303 7.54324 12.5512C8.56277 12.3722 9.24386 11.4019 9.06386 10.3847ZM28.4439 8.66719C24.2729 6.3525 19.4706 5.50734 14.7573 6.26016C13.4771 6.46453 12.4567 7.49109 12.2242 8.80828L10.7368 17.2228C10.0154 21.3033 15.2031 26.423 18.1576 26.9423C21.1121 27.4622 27.7421 24.4209 28.4636 20.3405L29.9509 11.9259C30.1839 10.6083 29.5768 9.29578 28.4439 8.66719ZM15.6357 13.2047C15.8157 12.1875 16.7879 11.5083 17.8079 11.6878C18.8279 11.8673 19.5086 12.8372 19.329 13.8544C19.2948 14.0475 19.2245 14.2233 19.1382 14.3888C18.7515 13.9711 18.1693 13.6505 17.4826 13.53C16.7959 13.4091 16.1387 13.5112 15.632 13.7723C15.6071 13.5872 15.6015 13.3978 15.6357 13.2047ZM18.939 22.5216C16.329 22.0627 14.5553 19.7433 14.7653 17.2294C15.7309 18.4266 17.4001 19.3936 19.4289 19.7503C21.4576 20.107 23.3579 19.7677 24.6756 18.9722C24.0109 21.4069 21.5486 22.9805 18.939 22.5216ZM25.0468 15.4275C24.6601 15.0098 24.0775 14.6892 23.3907 14.5688C22.704 14.4478 22.0468 14.55 21.5401 14.8111C21.5157 14.6264 21.5101 14.437 21.5443 14.2439C21.7243 13.2267 22.6965 12.5475 23.7165 12.7266C24.7361 12.9061 25.4171 13.8759 25.2376 14.8931C25.2034 15.0867 25.1331 15.2625 25.0468 15.4275Z" fill="#0B233B"/>
</g>
<defs>
<clipPath id="clip0_23_921">
<rect width="30" height="30" fill="white"/>
</clipPath>
</defs>
</svg>
