<svg width="146" height="146" viewBox="0 0 146 146" fill="none" xmlns="http://www.w3.org/2000/svg">
<rect width="146" height="146" rx="10" fill="#103356"/>
<rect width="146" height="146" rx="10" fill="url(#paint0_radial_53_2706)" fill-opacity="0.5"/>
<path d="M122.986 52.2999C124.974 47.7481 124.312 15.2347 124.312 15.2347C124.312 15.2347 98.8775 18.8353 87.1792 30.8411C77.1706 41.1127 67.2871 68.5565 67.2871 68.5565H102.43C115.221 65.5236 120.997 56.8517 122.986 52.2999Z" fill="#F4F4F4"/>
<path d="M21.745 52.2999C19.7565 47.7481 20.419 15.2347 20.419 15.2347C20.419 15.2347 45.8531 18.8353 57.5513 30.8411C67.56 41.1127 77.4435 68.5565 77.4435 68.5565H42.3003C29.5091 65.5236 23.7334 56.8517 21.745 52.2999Z" fill="#F4F4F4"/>
<path d="M122.986 114.509C124.974 109.957 124.312 77.4435 124.312 77.4435C124.312 77.4435 98.8776 81.0441 87.1793 93.0498C77.1707 103.321 67.2872 130.765 67.2872 130.765H102.43C115.222 127.732 120.997 119.06 122.986 114.509Z" fill="#F4F4F4"/>
<path d="M21.745 114.509C19.7566 109.957 20.419 77.4435 20.419 77.4435C20.419 77.4435 45.8531 81.0441 57.5514 93.0498C67.5601 103.321 77.4435 130.765 77.4435 130.765H42.3004C29.5092 127.732 23.7335 119.06 21.745 114.509Z" fill="#F4F4F4"/>
<defs>
<radialGradient id="paint0_radial_53_2706" cx="0" cy="0" r="1" gradientUnits="userSpaceOnUse" gradientTransform="translate(73 73) rotate(90) scale(73)">
<stop offset="0.27" stop-color="#103356"/>
<stop offset="1" stop-color="#06121E"/>
</radialGradient>
</defs>
</svg>
