<svg width="150" height="52" viewBox="0 0 150 52" fill="none" xmlns="http://www.w3.org/2000/svg">
<path d="M63.2461 32.418C63.3919 32.4635 63.5378 32.4954 63.6836 32.5137C63.8294 32.5228 63.9753 32.5273 64.1211 32.5273C64.4857 32.5273 64.8366 32.4772 65.1738 32.377C65.5111 32.2767 65.8255 32.1354 66.1172 31.9531C66.418 31.7617 66.6823 31.5339 66.9102 31.2695C67.1471 30.9961 67.3385 30.6953 67.4844 30.3672L70.2188 33.1152C69.8724 33.6074 69.4714 34.0495 69.0156 34.4414C68.569 34.8333 68.0814 35.166 67.5527 35.4395C67.0332 35.7129 66.4818 35.918 65.8984 36.0547C65.3242 36.2005 64.7318 36.2734 64.1211 36.2734C63.0911 36.2734 62.1204 36.082 61.209 35.6992C60.3066 35.3164 59.5137 34.7832 58.8301 34.0996C58.1556 33.416 57.6224 32.6048 57.2305 31.666C56.8385 30.7181 56.6426 29.679 56.6426 28.5488C56.6426 27.3913 56.8385 26.334 57.2305 25.377C57.6224 24.4199 58.1556 23.6042 58.8301 22.9297C59.5137 22.2552 60.3066 21.7311 61.209 21.3574C62.1204 20.9837 63.0911 20.7969 64.1211 20.7969C64.7318 20.7969 65.3288 20.8698 65.9121 21.0156C66.4954 21.1615 67.0469 21.3711 67.5664 21.6445C68.0951 21.918 68.5872 22.2552 69.043 22.6562C69.4987 23.0482 69.8997 23.4902 70.2461 23.9824L63.2461 32.418ZM65.1602 24.7207C64.987 24.6569 64.8138 24.6159 64.6406 24.5977C64.4766 24.5794 64.3034 24.5703 64.1211 24.5703C63.6107 24.5703 63.1276 24.666 62.6719 24.8574C62.2253 25.0397 61.8333 25.304 61.4961 25.6504C61.168 25.9967 60.9082 26.416 60.7168 26.9082C60.5254 27.3913 60.4297 27.9382 60.4297 28.5488C60.4297 28.6855 60.4342 28.8405 60.4434 29.0137C60.4616 29.1868 60.4844 29.3646 60.5117 29.5469C60.5482 29.7201 60.5892 29.8887 60.6348 30.0527C60.6803 30.2168 60.7396 30.3626 60.8125 30.4902L65.1602 24.7207ZM76.0977 36L70.5195 21.3574H74.7715L77.9707 30.4902L81.1562 21.3574H85.4219L79.8438 36H76.0977ZM92.2305 32.418C92.3763 32.4635 92.5221 32.4954 92.668 32.5137C92.8138 32.5228 92.9596 32.5273 93.1055 32.5273C93.4701 32.5273 93.821 32.4772 94.1582 32.377C94.4954 32.2767 94.8099 32.1354 95.1016 31.9531C95.4023 31.7617 95.6667 31.5339 95.8945 31.2695C96.1315 30.9961 96.3229 30.6953 96.4688 30.3672L99.2031 33.1152C98.8568 33.6074 98.4557 34.0495 98 34.4414C97.5534 34.8333 97.0658 35.166 96.5371 35.4395C96.0176 35.7129 95.4661 35.918 94.8828 36.0547C94.3086 36.2005 93.7161 36.2734 93.1055 36.2734C92.0755 36.2734 91.1048 36.082 90.1934 35.6992C89.291 35.3164 88.498 34.7832 87.8145 34.0996C87.14 33.416 86.6068 32.6048 86.2148 31.666C85.8229 30.7181 85.627 29.679 85.627 28.5488C85.627 27.3913 85.8229 26.334 86.2148 25.377C86.6068 24.4199 87.14 23.6042 87.8145 22.9297C88.498 22.2552 89.291 21.7311 90.1934 21.3574C91.1048 20.9837 92.0755 20.7969 93.1055 20.7969C93.7161 20.7969 94.3132 20.8698 94.8965 21.0156C95.4798 21.1615 96.0312 21.3711 96.5508 21.6445C97.0794 21.918 97.5716 22.2552 98.0273 22.6562C98.4831 23.0482 98.8841 23.4902 99.2305 23.9824L92.2305 32.418ZM94.1445 24.7207C93.9714 24.6569 93.7982 24.6159 93.625 24.5977C93.4609 24.5794 93.2878 24.5703 93.1055 24.5703C92.5951 24.5703 92.112 24.666 91.6562 24.8574C91.2096 25.0397 90.8177 25.304 90.4805 25.6504C90.1523 25.9967 89.8926 26.416 89.7012 26.9082C89.5098 27.3913 89.4141 27.9382 89.4141 28.5488C89.4141 28.6855 89.4186 28.8405 89.4277 29.0137C89.446 29.1868 89.4688 29.3646 89.4961 29.5469C89.5326 29.7201 89.5736 29.8887 89.6191 30.0527C89.6647 30.2168 89.724 30.3626 89.7969 30.4902L94.1445 24.7207ZM104.85 36H101.117V21.3574H102.02L103.25 22.7793C103.852 22.2324 104.531 21.8132 105.287 21.5215C106.053 21.2207 106.85 21.0703 107.68 21.0703C108.573 21.0703 109.416 21.2435 110.209 21.5898C111.002 21.9271 111.695 22.3965 112.287 22.998C112.88 23.5905 113.344 24.2878 113.682 25.0898C114.028 25.8828 114.201 26.7305 114.201 27.6328V36H110.469V27.6328C110.469 27.25 110.396 26.89 110.25 26.5527C110.104 26.2064 109.904 25.9056 109.648 25.6504C109.393 25.3952 109.097 25.1947 108.76 25.0488C108.423 24.903 108.062 24.8301 107.68 24.8301C107.288 24.8301 106.919 24.903 106.572 25.0488C106.226 25.1947 105.925 25.3952 105.67 25.6504C105.415 25.9056 105.214 26.2064 105.068 26.5527C104.923 26.89 104.85 27.25 104.85 27.6328V36ZM124.018 36C123.115 36 122.268 35.8314 121.475 35.4941C120.682 35.1478 119.984 34.6784 119.383 34.0859C118.79 33.4844 118.321 32.7871 117.975 31.9941C117.637 31.2012 117.469 30.3535 117.469 29.4512V25.1035H115.65V21.3848H117.469V15.5332H121.188V21.3848H126.848V25.1035H121.188V29.4512C121.188 29.8431 121.26 30.2122 121.406 30.5586C121.552 30.8958 121.753 31.1921 122.008 31.4473C122.263 31.7025 122.564 31.9076 122.91 32.0625C123.257 32.2083 123.626 32.2812 124.018 32.2812H126.848V36H124.018ZM132.713 36H128.953V15.5332H132.713V36ZM139.098 41.5781V37.8184L141.176 37.8457C141.54 37.8457 141.891 37.7865 142.229 37.668C142.566 37.5495 142.876 37.3854 143.158 37.1758C143.45 36.9661 143.705 36.7155 143.924 36.4238C144.143 36.1413 144.32 35.8314 144.457 35.4941C144.047 35.6673 143.628 35.8405 143.199 36.0137C142.78 36.1868 142.356 36.2734 141.928 36.2734C141.025 36.2734 140.178 36.1139 139.385 35.7949C138.592 35.4759 137.895 35.0247 137.293 34.4414C136.701 33.849 136.231 33.1335 135.885 32.2949C135.548 31.4473 135.379 30.4993 135.379 29.4512V21.3574H139.098V29.4512C139.098 29.9707 139.171 30.4264 139.316 30.8184C139.471 31.2012 139.676 31.5247 139.932 31.7891C140.187 32.0443 140.483 32.2357 140.82 32.3633C141.167 32.4909 141.536 32.5547 141.928 32.5547C142.311 32.5547 142.671 32.4681 143.008 32.2949C143.354 32.1126 143.655 31.8757 143.91 31.584C144.165 31.2923 144.366 30.9642 144.512 30.5996C144.658 30.2259 144.73 29.8431 144.73 29.4512V21.3574H148.49V34.1543C148.481 35.1842 148.281 36.1504 147.889 37.0527C147.497 37.9551 146.959 38.7435 146.275 39.418C145.601 40.0924 144.812 40.6257 143.91 41.0176C143.008 41.4095 142.042 41.6055 141.012 41.6055L139.098 41.5781Z" fill="#F4F4F4"/>
<path d="M45.7736 44.2584C46.66 42.2291 46.3647 27.7339 46.3647 27.7339C46.3647 27.7339 35.0256 29.3392 29.8103 34.6916C25.3482 39.2709 20.942 51.5059 20.942 51.5059H36.6095C42.3121 50.1538 44.8871 46.2877 45.7736 44.2584Z" fill="#F4F4F4"/>
<path d="M0.638373 44.2584C-0.248119 42.2291 0.0472258 27.7339 0.0472258 27.7339C0.0472258 27.7339 11.3863 29.3392 16.6016 34.6916C21.0637 39.2709 25.4699 51.5059 25.4699 51.5059H9.80239C4.0998 50.1538 1.52487 46.2877 0.638373 44.2584Z" fill="#F4F4F4"/>
<path d="M45.7736 16.5244C46.66 14.4951 46.3647 0 46.3647 0C46.3647 0 35.0256 1.60522 29.8103 6.95763C25.3482 11.537 20.942 23.772 20.942 23.772H36.6095C42.3121 22.4198 44.8871 18.5537 45.7736 16.5244Z" fill="#F4F4F4"/>
<path d="M0.638373 16.5244C-0.248119 14.4951 0.0472258 0 0.0472258 0C0.0472258 0 11.3863 1.60522 16.6016 6.95763C21.0637 11.537 25.4699 23.772 25.4699 23.772H9.80239C4.0998 22.4198 1.52487 18.5537 0.638373 16.5244Z" fill="#F4F4F4"/>
</svg>
