<svg width="50" height="50" viewBox="0 0 50 50" fill="none" xmlns="http://www.w3.org/2000/svg">
<rect width="50" height="50" rx="25" fill="#F4F4F4"/>
<path d="M12.5 40C12.5 40 10 40 10 37.5C10 35 12.5 27.5 25 27.5C37.5 27.5 40 35 40 37.5C40 40 37.5 40 37.5 40H12.5ZM25 25C26.9891 25 28.8968 24.2098 30.3033 22.8033C31.7098 21.3968 32.5 19.4891 32.5 17.5C32.5 15.5109 31.7098 13.6032 30.3033 12.1967C28.8968 10.7902 26.9891 10 25 10C23.0109 10 21.1032 10.7902 19.6967 12.1967C18.2902 13.6032 17.5 15.5109 17.5 17.5C17.5 19.4891 18.2902 21.3968 19.6967 22.8033C21.1032 24.2098 23.0109 25 25 25Z" fill="#103356"/>
</svg>
