<svg width="200" height="174" viewBox="0 0 200 174" fill="none" xmlns="http://www.w3.org/2000/svg">
<rect width="200" height="174" rx="10" fill="#D9D9D9"/>
<g clip-path="url(#clip0_359_1194)">
<path d="M81.2688 63.5625C81.2688 67.2921 79.7872 70.869 77.15 73.5062C74.5128 76.1434 70.9359 77.625 67.2063 77.625C63.4767 77.625 59.8998 76.1434 57.2626 73.5062C54.6254 70.869 53.1438 67.2921 53.1438 63.5625C53.1438 59.8329 54.6254 56.256 57.2626 53.6188C59.8998 50.9816 63.4767 49.5 67.2063 49.5C70.9359 49.5 74.5128 50.9816 77.15 53.6188C79.7872 56.256 81.2688 59.8329 81.2688 63.5625Z" fill="black" fill-opacity="0.25"/>
<path d="M39.0625 30.75C35.3329 30.75 31.756 32.2316 29.1188 34.8688C26.4816 37.506 25 41.0829 25 44.8125L25 129.188C25 132.917 26.4816 136.494 29.1188 139.131C31.756 141.768 35.3329 143.25 39.0625 143.25H160.938C164.667 143.25 168.244 141.768 170.881 139.131C173.518 136.494 175 132.917 175 129.188V44.8125C175 41.0829 173.518 37.506 170.881 34.8688C168.244 32.2316 164.667 30.75 160.938 30.75H39.0625ZM160.938 40.125C162.181 40.125 163.373 40.6189 164.252 41.4979C165.131 42.377 165.625 43.5693 165.625 44.8125V101.062L130.234 82.8094C129.355 82.369 128.36 82.2162 127.389 82.3727C126.418 82.5291 125.521 82.9869 124.825 83.6812L90.0438 118.462L65.1062 101.85C64.2059 101.251 63.1259 100.981 62.0494 101.087C60.973 101.193 59.9662 101.668 59.2 102.431L34.3937 124.5V129.562L34.375 129.188V44.8125C34.375 43.5693 34.8689 42.377 35.7479 41.4979C36.627 40.6189 37.8193 40.125 39.0625 40.125H160.938Z" fill="black" fill-opacity="0.25"/>
</g>
<defs>
<clipPath id="clip0_359_1194">
<rect width="150" height="150" fill="white" transform="translate(25 12)"/>
</clipPath>
</defs>
</svg>
